# xmcd
#
# Track frame offsets:
#	150
#	11565
#	23585
#	35295
#	47442
#	58972
#	70810
#	83590
#	95495
#	108467
#	121777
#	134955
#	147707
#	158635
#
# Disc length: 2310 seconds
#
# Revision: 2
# Processed by: cddbd v1.5.2PL0 Copyright (c) Steve Scherf et al.
# Submitted via: audiograbber 1.83.01
#
DISCID=bb09040e
DTITLE=Conway Twitty and Loretta Lynn - The Very Best Of
DYEAR=1980
DGENRE=Country
TTITLE0=Louisiana Woman,Mississippi Man
TTITLE1=From Seven Till Ten
TTITLE2=Pickin' Wild mountain Berries
TTITLE3=As Soon As I Hang Up The Phone
TTITLE4=Your The Reason Our Kids Are ugly
TTITLE5=It's Only Make Believe
TTITLE6=I've Already Loved You In My Mind
TTITLE7=After The fire Is Gone
TTITLE8=I Can't Love You Enough
TTITLE9=Feelins'
TTITLE10=Spiders And Snakes
TTITLE11=The Letter
TTITLE12=Lead Me On
TTITLE13=God Bless America Again
EXTD=
EXTT0=
EXTT1=
EXTT2=
EXTT3=
EXTT4=
EXTT5=
EXTT6=
EXTT7=
EXTT8=
EXTT9=
EXTT10=
EXTT11=
EXTT12=
EXTT13=
PLAYORDER=
